# xmcd
#
# Track frame offsets:
#	150
#	21395
#	38605
#
# Disc length: 663 seconds
#
# Revision: 1
# Processed by: cddbd v1.5PL3 Copyright (c) Steve Scherf et al.
# Submitted via: CDex 1.50Beta5
#
DISCID=1b029503
DTITLE=esrevnoc - 日本のお仕事
DYEAR=1995
DGENRE=Pop
TTITLE0=日本のお仕事
TTITLE1=Happy Together
TTITLE2=Oh Pretty Woman
EXTD=
EXTT0=
EXTT1=
EXTT2=
PLAYORDER=
